<svg width="32" height="32" viewBox="0 0 32 32" fill="none" xmlns="http://www.w3.org/2000/svg">
  <path d="M32 0H0V32H32V0Z" fill="#D8F3DC" />
  <path d="M32 0H0V32H32V0Z" fill="url(#paint0_linear)" />
  <g style="mix-blend-mode:hard-light">
    <path
      d="M8.04743 23V7.35938H12.4625C13.8231 7.35938 15.0263 7.66016 16.0718 8.26172C17.1174 8.86328 17.9231 9.71908 18.4888 10.8291C19.0618 11.9391 19.3518 13.2139 19.359 14.6533V15.6523C19.359 17.1276 19.0725 18.4202 18.4996 19.5303C17.9338 20.6403 17.121 21.4925 16.0611 22.0869C15.0084 22.6813 13.7802 22.9857 12.3765 23H8.04743ZM10.1099 9.05664V21.3135H12.2799C13.8697 21.3135 15.105 20.8193 15.9859 19.8311C16.8739 18.8428 17.3179 17.4355 17.3179 15.6094V14.6963C17.3179 12.9202 16.899 11.5417 16.0611 10.5605C15.2304 9.57227 14.0487 9.07096 12.5162 9.05664H10.1099ZM21.1207 21.958C21.1207 21.6143 21.2209 21.3278 21.4215 21.0986C21.6291 20.8695 21.9371 20.7549 22.3453 20.7549C22.7535 20.7549 23.0614 20.8695 23.2691 21.0986C23.484 21.3278 23.5914 21.6143 23.5914 21.958C23.5914 22.2874 23.484 22.5632 23.2691 22.7852C23.0614 23.0072 22.7535 23.1182 22.3453 23.1182C21.9371 23.1182 21.6291 23.0072 21.4215 22.7852C21.2209 22.5632 21.1207 22.2874 21.1207 21.958Z"
      fill="#D8F3DC" />
    <path
      d="M8.04743 23V7.35938H12.4625C13.8231 7.35938 15.0263 7.66016 16.0718 8.26172C17.1174 8.86328 17.9231 9.71908 18.4888 10.8291C19.0618 11.9391 19.3518 13.2139 19.359 14.6533V15.6523C19.359 17.1276 19.0725 18.4202 18.4996 19.5303C17.9338 20.6403 17.121 21.4925 16.0611 22.0869C15.0084 22.6813 13.7802 22.9857 12.3765 23H8.04743ZM10.1099 9.05664V21.3135H12.2799C13.8697 21.3135 15.105 20.8193 15.9859 19.8311C16.8739 18.8428 17.3179 17.4355 17.3179 15.6094V14.6963C17.3179 12.9202 16.899 11.5417 16.0611 10.5605C15.2304 9.57227 14.0487 9.07096 12.5162 9.05664H10.1099ZM21.1207 21.958C21.1207 21.6143 21.2209 21.3278 21.4215 21.0986C21.6291 20.8695 21.9371 20.7549 22.3453 20.7549C22.7535 20.7549 23.0614 20.8695 23.2691 21.0986C23.484 21.3278 23.5914 21.6143 23.5914 21.958C23.5914 22.2874 23.484 22.5632 23.2691 22.7852C23.0614 23.0072 22.7535 23.1182 22.3453 23.1182C21.9371 23.1182 21.6291 23.0072 21.4215 22.7852C21.2209 22.5632 21.1207 22.2874 21.1207 21.958Z"
      fill="url(#paint1_linear)" />
  </g>
  <defs>
    <linearGradient id="paint0_linear" x1="16" y1="0" x2="16" y2="32" gradientUnits="userSpaceOnUse">
      <stop stop-color="#FF006E" stop-opacity="0.45" />
      <stop offset="1" stop-color="white" stop-opacity="0" />
    </linearGradient>
    <linearGradient id="paint1_linear" x1="16.232" y1="2" x2="16.232" y2="28" gradientUnits="userSpaceOnUse">
      <stop stop-color="white" />
      <stop offset="1" stop-color="white" stop-opacity="0" />
    </linearGradient>
  </defs>
</svg>