<svg width="400" height="400" viewBox="0 0 400 400" fill="none" xmlns="http://www.w3.org/2000/svg">
<path d="M400 0H0V400H400V0Z" fill="#EA3C34"/>
<g style="mix-blend-mode:hard-light" filter="url(#filter0_d)">
<path d="M186.635 275.75C176.802 275.75 168.052 273.25 160.385 268.25C152.719 263.083 146.635 255.583 142.135 245.75C137.635 235.75 135.385 223.667 135.385 209.5C135.385 188.167 140.302 171.833 150.135 160.5C160.135 149 173.552 143.25 190.385 143.25C198.385 143.25 205.385 144.917 211.385 148.25C213.885 149.417 216.469 151.083 219.135 153.25V104.5L204.135 100.75V97H236.635C251.635 97 259.135 104.5 259.135 119.5V264.5L274.135 268.25V272H251.635C241.635 272 233.885 268.917 228.385 262.75C226.052 260.25 224.219 257.083 222.885 253.25C220.719 257.417 217.969 261.167 214.635 264.5C207.135 272 197.802 275.75 186.635 275.75ZM196.635 267C202.802 267 208.385 263.667 213.385 257C215.219 254.5 217.135 251.167 219.135 247V160.75C217.302 158.917 215.385 157.25 213.385 155.75C208.885 152.417 204.552 150.75 200.385 150.75C193.219 150.75 187.635 154.917 183.635 163.25C179.802 171.583 177.885 187 177.885 209.5C177.885 231 179.635 246 183.135 254.5C186.802 262.833 191.302 267 196.635 267Z" fill="#FBF8F5"/>
<path d="M186.635 275.75C176.802 275.75 168.052 273.25 160.385 268.25C152.719 263.083 146.635 255.583 142.135 245.75C137.635 235.75 135.385 223.667 135.385 209.5C135.385 188.167 140.302 171.833 150.135 160.5C160.135 149 173.552 143.25 190.385 143.25C198.385 143.25 205.385 144.917 211.385 148.25C213.885 149.417 216.469 151.083 219.135 153.25V104.5L204.135 100.75V97H236.635C251.635 97 259.135 104.5 259.135 119.5V264.5L274.135 268.25V272H251.635C241.635 272 233.885 268.917 228.385 262.75C226.052 260.25 224.219 257.083 222.885 253.25C220.719 257.417 217.969 261.167 214.635 264.5C207.135 272 197.802 275.75 186.635 275.75ZM196.635 267C202.802 267 208.385 263.667 213.385 257C215.219 254.5 217.135 251.167 219.135 247V160.75C217.302 158.917 215.385 157.25 213.385 155.75C208.885 152.417 204.552 150.75 200.385 150.75C193.219 150.75 187.635 154.917 183.635 163.25C179.802 171.583 177.885 187 177.885 209.5C177.885 231 179.635 246 183.135 254.5C186.802 262.833 191.302 267 196.635 267Z" fill="url(#paint0_linear)"/>
<path d="M160.385 268.25L159.827 269.079L159.833 269.083L159.839 269.088L160.385 268.25ZM142.135 245.75L141.223 246.16L141.226 246.166L142.135 245.75ZM150.135 160.5L149.381 159.844L149.38 159.845L150.135 160.5ZM211.385 148.25L210.9 149.124L210.931 149.141L210.962 149.156L211.385 148.25ZM219.135 153.25L218.505 154.026L220.135 155.351V153.25H219.135ZM219.135 104.5H220.135V103.719L219.378 103.53L219.135 104.5ZM204.135 100.75H203.135V101.531L203.893 101.72L204.135 100.75ZM204.135 97V96H203.135V97H204.135ZM259.135 264.5H258.135V265.281L258.893 265.47L259.135 264.5ZM274.135 268.25H275.135V267.469L274.378 267.28L274.135 268.25ZM274.135 272V273H275.135V272H274.135ZM228.385 262.75L229.132 262.084L229.124 262.076L229.116 262.068L228.385 262.75ZM222.885 253.25L223.83 252.921L223.068 250.731L221.998 252.789L222.885 253.25ZM214.635 264.5L215.342 265.207L215.342 265.207L214.635 264.5ZM213.385 257L214.185 257.6L214.192 257.591L213.385 257ZM219.135 247L220.037 247.433L220.135 247.228V247H219.135ZM219.135 160.75H220.135V160.336L219.842 160.043L219.135 160.75ZM213.385 155.75L213.985 154.95L213.981 154.946L213.385 155.75ZM183.635 163.25L182.734 162.817L182.73 162.825L182.727 162.832L183.635 163.25ZM183.135 254.5L182.211 254.881L182.215 254.892L182.22 254.903L183.135 254.5ZM186.635 274.75C176.981 274.75 168.424 272.298 160.932 267.412L159.839 269.088C167.68 274.202 176.623 276.75 186.635 276.75V274.75ZM160.944 267.421C153.454 262.373 147.481 255.029 143.045 245.334L141.226 246.166C145.789 256.138 151.983 263.793 159.827 269.079L160.944 267.421ZM143.047 245.34C138.62 235.5 136.385 223.565 136.385 209.5H134.385C134.385 223.769 136.651 236 141.223 246.16L143.047 245.34ZM136.385 209.5C136.385 188.307 141.27 172.243 150.891 161.155L149.38 159.845C139.334 171.424 134.385 188.026 134.385 209.5H136.385ZM150.89 161.156C160.679 149.899 173.808 144.25 190.385 144.25V142.25C173.297 142.25 159.592 148.101 149.381 159.844L150.89 161.156ZM190.385 144.25C198.244 144.25 205.071 145.886 210.9 149.124L211.871 147.376C205.7 143.947 198.527 142.25 190.385 142.25V144.25ZM210.962 149.156C213.373 150.281 215.887 151.899 218.505 154.026L219.766 152.474C217.051 150.268 214.398 148.552 211.808 147.344L210.962 149.156ZM220.135 153.25V104.5H218.135V153.25H220.135ZM219.378 103.53L204.378 99.7798L203.893 101.72L218.893 105.47L219.378 103.53ZM205.135 100.75V97H203.135V100.75H205.135ZM204.135 98H236.635V96H204.135V98ZM236.635 98C243.981 98 249.307 99.8358 252.803 103.332C256.3 106.828 258.135 112.154 258.135 119.5H260.135C260.135 111.846 258.221 105.922 254.217 101.918C250.214 97.9142 244.29 96 236.635 96V98ZM258.135 119.5V264.5H260.135V119.5H258.135ZM258.893 265.47L273.893 269.22L274.378 267.28L259.378 263.53L258.893 265.47ZM273.135 268.25V272H275.135V268.25H273.135ZM274.135 271H251.635V273H274.135V271ZM251.635 271C241.855 271 234.403 267.994 229.132 262.084L227.639 263.416C233.368 269.839 241.415 273 251.635 273V271ZM229.116 262.068C226.894 259.687 225.126 256.648 223.83 252.921L221.941 253.579C223.312 257.519 225.21 260.813 227.654 263.432L229.116 262.068ZM221.998 252.789C219.879 256.864 217.19 260.532 213.928 263.793L215.342 265.207C218.748 261.802 221.559 257.969 223.773 253.711L221.998 252.789ZM213.928 263.793C206.627 271.095 197.552 274.75 186.635 274.75V276.75C198.052 276.75 207.644 272.905 215.342 265.207L213.928 263.793ZM196.635 268C203.22 268 209.068 264.423 214.185 257.6L212.585 256.4C207.703 262.91 202.385 266 196.635 266V268ZM214.192 257.591C216.075 255.024 218.022 251.631 220.037 247.433L218.234 246.567C216.249 250.702 214.363 253.976 212.579 256.409L214.192 257.591ZM220.135 247V160.75H218.135V247H220.135ZM219.842 160.043C217.977 158.177 216.025 156.479 213.985 154.95L212.785 156.55C214.746 158.021 216.627 159.656 218.428 161.457L219.842 160.043ZM213.981 154.946C209.367 151.529 204.829 149.75 200.385 149.75V151.75C204.275 151.75 208.404 153.304 212.79 156.554L213.981 154.946ZM200.385 149.75C192.717 149.75 186.843 154.257 182.734 162.817L184.537 163.683C188.428 155.576 193.72 151.75 200.385 151.75V149.75ZM182.727 162.832C178.792 171.386 176.885 187.007 176.885 209.5H178.885C178.885 186.993 180.812 171.78 184.544 163.668L182.727 162.832ZM176.885 209.5C176.885 231.002 178.628 246.18 182.211 254.881L184.06 254.119C180.643 245.82 178.885 230.998 178.885 209.5H176.885ZM182.22 254.903C185.925 263.322 190.673 268 196.635 268V266C191.931 266 187.679 262.344 184.051 254.097L182.22 254.903Z" fill="#FBF8F5"/>
</g>
<defs>
<filter id="filter0_d" x="131.385" y="97" width="146.75" height="186.75" filterUnits="userSpaceOnUse" color-interpolation-filters="sRGB">
<feFlood flood-opacity="0" result="BackgroundImageFix"/>
<feColorMatrix in="SourceAlpha" type="matrix" values="0 0 0 0 0 0 0 0 0 0 0 0 0 0 0 0 0 0 127 0"/>
<feOffset dy="4"/>
<feGaussianBlur stdDeviation="2"/>
<feColorMatrix type="matrix" values="0 0 0 0 0 0 0 0 0 0 0 0 0 0 0 0 0 0 0.25 0"/>
<feBlend mode="normal" in2="BackgroundImageFix" result="effect1_dropShadow"/>
<feBlend mode="normal" in="SourceGraphic" in2="effect1_dropShadow" result="shape"/>
</filter>
<linearGradient id="paint0_linear" x1="202.9" y1="25" x2="202.9" y2="350" gradientUnits="userSpaceOnUse">
<stop stop-color="#6D8581"/>
<stop offset="1" stop-color="white" stop-opacity="0"/>
</linearGradient>
</defs>
</svg>
